# xmcd
#
# Track frame offsets:
#	183
#	17665
#	36638
#	56295
#	71418
#	86833
#	107385
#	125630
#	147848
#
# Disc length: 2203 seconds
#
# Revision: 3
# Processed by: cddbd v1.5.1PL0 Copyright (c) Steve Scherf et al.
# Submitted via: audiograbber 1.83.01
#
DISCID=78089909,81089909
DTITLE=Sherrick - Sherrick
DYEAR=1987
DGENRE=R&B
TTITLE0=Tell Me What It Is
TTITLE1=Just Call
TTITLE2=Baby, I'm For Real
TTITLE3=This Must Be Love
TTITLE4=Do You Baby
TTITLE5=All Because Of You
TTITLE6=Let's Be Lovers Tonight
TTITLE7=Lady You Are
TTITLE8=Send For Me
EXTD=
EXTT0=
EXTT1=
EXTT2=
EXTT3=
EXTT4=
EXTT5=
EXTT6=
EXTT7=
EXTT8=
PLAYORDER=
